<?xml version="1.0" standalone="no"?>
<!DOCTYPE svg PUBLIC "-//W3C//DTD SVG 20010904//EN"
 "http://www.w3.org/TR/2001/REC-SVG-20010904/DTD/svg10.dtd">
<svg version="1.0" xmlns="http://www.w3.org/2000/svg"
 width="339.000000pt" height="159.000000pt" viewBox="0 0 339.000000 159.000000"
 preserveAspectRatio="xMidYMid meet">

<g transform="translate(0.000000,159.000000) scale(0.100000,-0.100000)"
fill="#000000" stroke="none">
<path d="M630 1115 l0 -285 60 0 60 0 0 255 0 255 79 0 c63 0 80 -3 85 -16 3
-9 6 -123 6 -255 l0 -239 60 0 60 0 0 254 0 254 -30 7 c-23 5 -30 12 -30 31
l0 24 -175 0 -175 0 0 -285z"/>
<path d="M1140 1370 c0 -25 -4 -30 -25 -30 l-25 0 0 -230 0 -230 25 0 c20 0
25 -5 25 -25 l0 -25 175 0 175 0 0 30 0 30 -140 0 -140 0 0 110 0 110 109 0
c63 0 112 4 116 10 3 6 3 19 0 30 -6 18 -15 20 -93 20 -135 0 -132 -2 -132 91
l0 79 140 0 140 0 0 30 0 30 -175 0 -175 0 0 -30z"/>
<path d="M1542 1143 l3 -258 28 -3 c21 -3 27 -9 27 -28 l0 -24 175 0 175 0 0
25 c0 20 5 25 25 25 l25 0 0 260 0 260 -60 0 -60 0 0 -255 0 -255 -25 0 -25 0
0 255 0 255 -60 0 -60 0 0 -255 0 -255 -25 0 -25 0 0 255 0 255 -60 0 -60 0 2
-257z"/>
<path d="M2570 840 l0 -460 35 0 c33 0 35 2 35 35 0 33 2 35 35 35 33 0 35 2
35 35 0 33 2 35 35 35 33 0 35 2 35 35 0 33 2 35 35 35 33 0 35 -2 35 -35 0
-34 1 -35 40 -35 l40 0 0 -70 0 -70 35 0 35 0 0 -70 0 -70 70 0 70 0 0 35 c0
33 -2 35 -35 35 l-35 0 0 70 0 70 -35 0 -35 0 0 105 0 105 105 0 105 0 0 40
c0 39 -1 40 -35 40 -33 0 -35 2 -35 35 0 33 -2 35 -35 35 -33 0 -35 2 -35 35
0 33 -2 35 -35 35 -33 0 -35 2 -35 35 0 33 -2 35 -35 35 -33 0 -35 2 -35 35 0
34 -1 35 -40 35 -39 0 -40 1 -40 35 0 33 -2 35 -35 35 -33 0 -35 2 -35 35 0
33 -2 35 -35 35 -33 0 -35 2 -35 35 0 33 -2 35 -35 35 -33 0 -35 2 -35 35 0
33 -2 35 -35 35 l-35 0 0 -460z"/>
<path d="M180 510 l0 -260 25 0 c20 0 25 -5 25 -25 l0 -25 175 0 175 0 0 25
c0 21 5 25 30 25 l30 0 0 260 0 260 -60 0 -60 0 0 -255 0 -255 -25 0 -25 0 0
255 0 255 -60 0 -60 0 0 -255 0 -255 -25 0 -25 0 0 255 0 255 -60 0 -60 0 0
-260z"/>
<path d="M740 740 c0 -25 -4 -30 -25 -30 l-25 0 0 -230 0 -230 25 0 c20 0 25
-5 25 -25 l0 -25 150 0 150 0 0 25 c0 20 5 25 25 25 l25 0 0 229 0 229 -24 6
c-14 3 -26 16 -30 31 l-6 25 -145 0 -145 0 0 -30z m230 -255 l0 -225 -80 0
-80 0 0 225 0 225 80 0 80 0 0 -225z"/>
<path d="M1140 485 l0 -285 60 0 60 0 0 140 0 140 79 0 c63 0 80 -3 85 -16 3
-9 6 -72 6 -140 l0 -124 60 0 61 0 -3 143 -3 142 -27 3 c-22 3 -28 9 -28 28 0
20 5 24 30 24 l30 0 0 84 0 84 -30 7 c-23 5 -30 12 -30 31 l0 24 -175 0 -175
0 0 -285z m285 202 c4 -13 5 -50 3 -82 l-3 -60 -50 -3 c-27 -2 -65 -1 -82 3
l-33 6 0 79 0 80 80 0 c75 0 80 -1 85 -23z"/>
<path d="M1600 485 l0 -285 200 0 200 0 0 30 0 30 -140 0 -140 0 0 255 0 255
-60 0 -60 0 0 -285z"/>
<path d="M2050 485 l0 -285 175 0 175 0 0 25 c0 21 5 25 30 25 l30 0 0 229 0
229 -30 7 c-23 5 -30 12 -30 31 l0 24 -175 0 -175 0 0 -285z m284 209 c3 -9 6
-110 6 -225 l0 -209 -85 0 -85 0 0 225 0 225 79 0 c63 0 80 -3 85 -16z"/>
</g>
</svg>
